<?xml version="1.0" encoding="UTF-8"?>
<svg id="Layer_1" xmlns="http://www.w3.org/2000/svg" version="1.1" viewBox="0 0 15 15">
  <!-- Generator: Adobe Illustrator 29.5.1, SVG Export Plug-In . SVG Version: 2.1.0 Build 141)  -->
  <defs>
    <style>
      .st0 {
        fill: #fff;
      }
    </style>
  </defs>
  <path class="st0" d="M14.98,7.5c0,1.05-.02,2.11,0,3.16.05,1.86-1.12,3.3-2.61,3.94-.6.26-1.23.39-1.88.39-2.03,0-4.07.03-6.1,0-1.53-.03-2.79-.67-3.7-1.93-.47-.66-.7-1.42-.7-2.24v-6.5C0,2.54.86,1.31,2.39.5,3.05.16,3.78,0,4.53,0,6.5,0,8.48,0,10.45,0c1.53.01,2.81.6,3.75,1.83.53.69.78,1.48.78,2.35v3.31ZM1.11,7.5v3.32c0,.5.11.96.37,1.38.67,1.1,1.69,1.64,2.96,1.66,2.03.03,4.06.01,6.09,0,.5,0,.98-.1,1.43-.32,1.23-.59,1.91-1.52,1.91-2.92-.01-2.15,0-4.29,0-6.44,0-.61-.17-1.16-.53-1.65-.7-.94-1.66-1.4-2.8-1.41-2.02-.02-4.05,0-6.07,0-.43,0-.85.09-1.25.24-1.11.41-2.15,1.46-2.1,3.01.04,1.05,0,2.09,0,3.13Z"/>
  <path class="st0" d="M7.51,10.7c-1.95,0-3.52-1.55-3.52-3.49,0-1.9,1.58-3.46,3.52-3.46,1.94,0,3.52,1.55,3.52,3.47,0,1.92-1.57,3.47-3.52,3.48ZM7.51,9.58c1.33,0,2.4-1.06,2.4-2.37,0-1.29-1.08-2.35-2.4-2.35s-2.41,1.05-2.41,2.36c0,1.31,1.08,2.36,2.41,2.36Z"/>
  <path class="st0" d="M11.43,2.69c.41,0,.74.35.74.77,0,.43-.34.77-.75.77-.4,0-.73-.35-.73-.76,0-.43.33-.78.74-.78Z"/>
</svg>