<?xml version="1.0" encoding="UTF-8"?>
<svg id="Layer_1" xmlns="http://www.w3.org/2000/svg" version="1.1" viewBox="0 0 22.76 23.18">
  <!-- Generator: Adobe Illustrator 29.5.1, SVG Export Plug-In . SVG Version: 2.1.0 Build 141)  -->
  <defs>
    <style>
      .st0 {
        fill: #fff;
      }
    </style>
  </defs>
  <path class="st0" d="M18.36,10.3c0,.37.05.58.2.73.22.23.55.28.84.13.32-.17.39-.46.34-1.36-.13-2.29-1.03-4.13-2.63-5.43-.9-.73-1.99-1.23-3.19-1.47-.44-.09-1.25-.16-1.38-.12-.13.04-.32.18-.4.31-.09.14-.11.45-.03.63.12.3.34.41.97.46.96.08,1.96.42,2.71.92.86.57,1.54,1.35,1.98,2.27.38.79.62,1.92.61,2.94h-.02Z"/>
  <path class="st0" d="M14.15,5.79c-.65-.16-.92-.14-1.15.08-.22.2-.26.61-.09.87.12.19.25.26.63.33.51.09.85.21,1.17.4.67.39.99,1,1.02,1.98.02.46.06.61.22.77.3.3.83.24,1.06-.12.08-.14.1-.19.1-.51,0-.19,0-.48-.02-.64-.09-.75-.32-1.33-.73-1.85-.53-.67-1.21-1.07-2.21-1.31Z"/>
  <path class="st0" d="M12.28,1.4c.8.11,1.31.21,1.92.37,2.38.65,4.22,1.98,5.44,3.96,1.03,1.65,1.45,3.29,1.39,5.4-.02.71,0,.84.1,1.01.21.32.76.38,1.04.12.18-.16.21-.28.24-.89.02-.32.02-.79,0-1.04-.05-1.3-.27-2.36-.72-3.54-.45-1.17-.9-1.93-1.76-2.95-.81-.96-1.44-1.51-2.44-2.13-1.39-.85-3.09-1.42-4.99-1.66-.65-.08-.8-.08-.99.06-.39.25-.38.88,0,1.13.13.08.24.11.76.18v-.02Z"/>
  <path class="st0" d="M22.43,18.16c-.47-.71-3-2.69-4.26-3.34-.72-.37-1.25-.49-1.65-.38-.43.12-.65.32-1.36,1.2-.29.36-.58.69-.66.74-.19.13-.57.24-.84.24-.62,0-1.75-.41-2.62-.94-.68-.41-1.54-1.15-2.21-1.88-.78-.86-1.32-1.61-1.74-2.46-.54-1.1-.68-1.76-.46-2.25.06-.12.13-.25.16-.3.03-.04.38-.33.77-.64.76-.61.88-.74,1.03-1.16.18-.53.13-1.07-.15-1.61-.21-.41-.77-1.31-1.17-1.89-.53-.76-1.86-2.39-2.13-2.61-.48-.39-1.09-.46-1.77-.19-.71.28-2.05,1.35-2.62,2.11C.23,3.48.04,3.96,0,4.6c-.03.52.02.74.29,1.41,2.16,5.25,5.39,9.44,9.82,12.77,2.31,1.74,4.72,3.06,7.21,3.97,1.45.53,2.08.55,2.83.12.31-.19,1.09-.98,1.52-1.56.72-.96.98-1.41,1.06-1.76.05-.24,0-.67-.09-.93-.04-.13-.15-.33-.22-.45h0Z"/>
</svg>