<svg width="20" height="20" viewBox="0 0 20 20" fill="none" xmlns="http://www.w3.org/2000/svg">
<path fill-rule="evenodd" clip-rule="evenodd" d="M8.28567 2.7085H11.713C13.2445 2.70848 14.4575 2.70847 15.4069 2.83611C16.3839 2.96747 17.1747 3.24423 17.7983 3.86787C18.4219 4.4915 18.6987 5.28229 18.8301 6.25931C18.9055 6.82003 18.9363 7.47274 18.9489 8.22873C18.9547 8.26279 18.9577 8.29779 18.9577 8.3335C18.9577 8.36287 18.9557 8.39178 18.9517 8.42008C18.9577 8.89152 18.9577 9.40169 18.9577 9.95315V10.0472C18.9577 11.5786 18.9577 12.7917 18.8301 13.741C18.6987 14.718 18.4219 15.5088 17.7983 16.1325C17.1747 16.7561 16.3839 17.0329 15.4069 17.1642C14.4575 17.2919 13.2445 17.2918 11.713 17.2918H8.28567C6.75421 17.2918 5.54118 17.2919 4.59183 17.1642C3.61481 17.0329 2.82402 16.7561 2.20039 16.1325C1.57675 15.5088 1.29999 14.718 1.16863 13.741C1.04099 12.7917 1.041 11.5786 1.04102 10.0472V9.95315C1.04101 9.40168 1.04101 8.8915 1.04696 8.42006C1.04304 8.39177 1.04102 8.36287 1.04102 8.3335C1.04102 8.2978 1.04401 8.2628 1.04976 8.22874C1.06238 7.47275 1.09324 6.82004 1.16863 6.25931C1.29999 5.28229 1.57675 4.4915 2.20039 3.86787C2.82402 3.24423 3.61481 2.96747 4.59183 2.83611C5.54118 2.70847 6.7542 2.70848 8.28567 2.7085ZM2.29267 8.9585C2.29109 9.28216 2.29102 9.62858 2.29102 10.0002C2.29102 11.5892 2.29234 12.7181 2.40748 13.5745C2.5202 14.4129 2.73159 14.8959 3.08427 15.2486C3.43694 15.6013 3.91998 15.8126 4.75839 15.9254C5.61478 16.0405 6.74367 16.0418 8.33268 16.0418H11.666C13.255 16.0418 14.3839 16.0405 15.2403 15.9254C16.0787 15.8126 16.5618 15.6013 16.9144 15.2486C17.2671 14.8959 17.4785 14.4129 17.5912 13.5745C17.7064 12.7181 17.7077 11.5892 17.7077 10.0002C17.7077 9.62858 17.7076 9.28216 17.706 8.9585H2.29267ZM17.686 7.7085H2.31274C2.32905 7.21956 2.35757 6.79711 2.40748 6.42587C2.5202 5.58746 2.73159 5.10442 3.08427 4.75175C3.43694 4.39907 3.91998 4.18768 4.75839 4.07496C5.61478 3.95982 6.74367 3.9585 8.33268 3.9585H11.666C13.255 3.9585 14.3839 3.95982 15.2403 4.07496C16.0787 4.18768 16.5618 4.39907 16.9144 4.75175C17.2671 5.10442 17.4785 5.58746 17.5912 6.42587C17.6411 6.79711 17.6697 7.21956 17.686 7.7085ZM13.2954 10.2085H13.37C13.7306 10.2085 14.0613 10.2084 14.3304 10.2446C14.6266 10.2844 14.9397 10.3781 15.1972 10.6356C15.4547 10.8932 15.5484 11.2063 15.5883 11.5025C15.6244 11.7715 15.6244 12.1022 15.6244 12.4629V12.5374C15.6244 12.8981 15.6244 13.2288 15.5883 13.4978C15.5484 13.7941 15.4547 14.1072 15.1972 14.3647C14.9397 14.6222 14.6266 14.7159 14.3304 14.7557C14.0613 14.7919 13.7306 14.7919 13.37 14.7918H13.2954C12.9347 14.7919 12.604 14.7919 12.335 14.7557C12.0388 14.7159 11.7257 14.6222 11.4682 14.3647C11.2106 14.1072 11.1169 13.7941 11.0771 13.4978C11.0409 13.2288 11.041 12.8981 11.041 12.5375V12.4629C11.041 12.1022 11.0409 11.7715 11.0771 11.5025C11.1169 11.2063 11.2106 10.8932 11.4682 10.6356C11.7257 10.3781 12.0388 10.2844 12.335 10.2446C12.604 10.2084 12.9347 10.2085 13.2954 10.2085ZM12.3541 11.5184L12.352 11.5195L12.3509 11.5216C12.3501 11.5232 12.3487 11.5259 12.347 11.5301C12.3395 11.5483 12.3268 11.5886 12.316 11.6691C12.2923 11.8447 12.291 12.0897 12.291 12.5002C12.291 12.9107 12.2923 13.1557 12.316 13.3313C12.3268 13.4117 12.3395 13.452 12.347 13.4702C12.3477 13.4719 12.3483 13.4734 12.3489 13.4746C12.3497 13.4765 12.3504 13.4778 12.3509 13.4788L12.352 13.4808L12.3541 13.4819C12.3557 13.4828 12.3584 13.4841 12.3627 13.4859C12.3808 13.4933 12.4211 13.5061 12.5016 13.5169C12.6772 13.5405 12.9222 13.5418 13.3327 13.5418C13.7432 13.5418 13.9882 13.5405 14.1638 13.5169C14.2443 13.5061 14.2846 13.4933 14.3027 13.4859C14.3069 13.4841 14.3097 13.4828 14.3113 13.4819L14.3133 13.4808L14.3145 13.4788C14.3153 13.4772 14.3167 13.4744 14.3184 13.4702C14.3259 13.452 14.3386 13.4117 14.3494 13.3313C14.373 13.1557 14.3743 12.9107 14.3743 12.5002C14.3743 12.0897 14.373 11.8447 14.3494 11.6691C14.3386 11.5886 14.3259 11.5483 14.3184 11.5301C14.3174 11.5277 14.3165 11.5257 14.3158 11.5242C14.3153 11.5231 14.3148 11.5222 14.3145 11.5216L14.3133 11.5195L14.3113 11.5184C14.3097 11.5175 14.3069 11.5162 14.3027 11.5145C14.2846 11.507 14.2443 11.4943 14.1638 11.4834C13.9882 11.4598 13.7432 11.4585 13.3327 11.4585C12.9222 11.4585 12.6772 11.4598 12.5016 11.4834C12.4211 11.4943 12.3808 11.507 12.3627 11.5145C12.3584 11.5162 12.3557 11.5175 12.3541 11.5184ZM4.37435 11.2502C4.37435 10.905 4.65417 10.6252 4.99935 10.6252H6.66602C7.01119 10.6252 7.29102 10.905 7.29102 11.2502C7.29102 11.5953 7.01119 11.8752 6.66602 11.8752H4.99935C4.65417 11.8752 4.37435 11.5953 4.37435 11.2502ZM12.352 13.4808C12.3517 13.4805 12.3518 13.4805 12.352 13.4808C12.3523 13.481 12.3524 13.4812 12.352 13.4808ZM14.3133 13.4808C14.3131 13.481 14.3133 13.4808 14.3133 13.4808V13.4808ZM4.37435 13.7502C4.37435 13.405 4.65417 13.1252 4.99935 13.1252H8.33268C8.67786 13.1252 8.95768 13.405 8.95768 13.7502C8.95768 14.0953 8.67786 14.3752 8.33268 14.3752H4.99935C4.65417 14.3752 4.37435 14.0953 4.37435 13.7502Z" fill="#242424"/>
</svg>
